<svg xmlns="http://www.w3.org/2000/svg" width="710" height="1000" viewBox="0 0 710 1000" stroke="none"
	fill="currentColor">
	<path
		d="m 566.80074,0 c -22.9811,0 -58.8237,9.0712 -88.4202,14.253 l -248.9057,43.5666 c -35.8156,6.2721 -60.6938,39.2009 -56.975,75.4144 2.1604,21.5585 4.4122,43.6479 6.6634,65.7706 2.9267,34.0615 -14.1463,76.0109 -14.9149,102.5685 -0.7659,26.4295 26.4377,26.1675 27.4248,24.819 1.339,14.6634 2.601,28.9247 3.6803,42.2275 L 55.503244,413.1587 c -44.9255,20.6684 -47.3279,42.0246 -52.8002,95.7702 -2.02610001,53.2944 -7.4463,95.3995 6.8947,148.9875 3.6078,12.4883 7.7196,24.8742 12.8408,36.8334 9.139,22.6458 11.8192,64.6371 -0.2265,92.9144 -6.9649,15.2088 -0.8203,26.3622 8.6785,33.4625 0.079,0.068 0.1434,0.091 0.2227,0.1549 l 42.7843,30.5934 0.091,0.068 1.4986,1.0662 c 1.0102,0.6883 2.0488,1.338 3.1114,1.9389 1.0619,0.6002 2.1409,1.1622 3.2311,1.6763 1.091,0.5117 2.1883,0.9868 3.2835,1.4207 2.1963,0.8613 4.3866,1.556 6.4847,2.07 3.1454,0.7726 6.0839,1.1656 8.527096,1.1656 4.9977,0 10.683,-1.4324 16.0245,-4.4908 0.3285,-0.189 0.6464,-0.4116 0.971,-0.6142 3.6459,-2.2443 7.1035,-5.2358 10.0156,-9.0962 0.3548,-0.4671 0.7002,-0.9407 1.0335,-1.4347 0.3322,-0.4951 0.6603,-0.997 0.982,-1.5103 0.3095,-0.5231 0.6202,-1.0465 0.9302,-1.5874 0.2944,-0.5397 0.587,-1.0949 0.8648,-1.6622 0.2718,-0.5677 0.5557,-1.141 0.8102,-1.7356 0.2603,-0.5941 0.5111,-1.2003 0.744,-1.8145 0.2265,-0.6202 0.4556,-1.2457 0.6685,-1.8932 0.2114,-0.647 0.4111,-1.3054 0.5999,-1.9767 0.068,-0.1738 0.068,-0.3553 0.1397,-0.5231 0.4669,-1.7484 0.8505,-3.5807 1.137,-5.5082 0,-0.1172 0.072,-0.2382 0.072,-0.3629 l 0.072,-1.1524 c 4.2393,2.072 8.5168,4.0948 12.8472,6.0159 3.4896,2.4257 7.1068,4.8246 10.7777,7.2197 2.2276,1.4558 4.1914,2.7356 6.3085,4.0947 4.1114,2.6381 7.9524,5.0865 10.9181,7.0095 2.2756,1.2473 4.555,2.439 6.8347,3.6046 0.3779,0.1965 0.7502,0.3836 1.1238,0.5722 2.1911,1.1062 4.3797,2.1747 6.5734,3.208 0.3945,0.189 0.7815,0.3667 1.1748,0.5564 2.2039,1.0269 4.4069,2.0254 6.6086,2.9843 0.3284,0.1398 0.6602,0.2721 0.9887,0.4226 1.5315,0.6618 3.0562,1.2831 4.5821,1.9113 1.612,0.6602 3.2201,1.3039 4.8234,1.9309 1.1446,0.4453 2.2853,0.8939 3.4247,1.3213 1.6916,0.6411 3.3753,1.2586 5.0578,1.8592 0.952,0.3402 1.9075,0.6913 2.8562,1.0178 1.9909,0.6902 3.9642,1.3497 5.9328,1.9899 0.6916,0.2268 1.3844,0.4672 2.0714,0.683 2.6353,0.841 5.2484,1.6426 7.8377,2.4008 0.5391,0.1625 1.0726,0.3023 1.612,0.4505 1.9931,0.5737 3.9811,1.1312 5.9403,1.6584 1.0563,0.2835 2.0945,0.5511 3.142,0.8247 1.4546,0.3784 2.9001,0.7571 4.3308,1.1112 1.1616,0.2835 2.3035,0.5579 3.4485,0.8311 1.2416,0.2911 2.4752,0.5919 3.6973,0.8655 1.2083,0.2722 2.4046,0.5454 3.5934,0.8074 1.1748,0.2494 2.331,0.5007 3.4861,0.7449 1.1691,0.2457 2.3383,0.4951 3.487,0.7211 1.0676,0.2155 2.1065,0.4116 3.1529,0.6206 1.182,0.223 2.3707,0.4676 3.524,0.68 0.2379,0.06 0.4727,0.06 0.7135,0.1285 3.8566,0.7113 7.572,1.3466 11.0945,1.9211 0,0 0,-8e-4 0.072,0 4.0476,8.4529 4.3809,18.2056 0.5448,27.2088 -10.1062,23.7453 -2.8762,39.1582 8.8713,47.661 l 43.2252,30.9105 c 7.712,5.5442 17.3403,8.1343 25.2992,8.1343 5.6685,0 11.7951,-0.9063 17.6018,-3.1502 1.9335,-0.7484 3.8336,-1.6434 5.6678,-2.7043 1.8328,-1.0609 3.6022,-2.2881 5.2787,-3.6941 0.5595,-0.4675 1.1061,-0.9619 1.6399,-1.4699 0.5333,-0.5064 1.0577,-1.0325 1.5707,-1.5866 0.4444,-0.4785 0.8793,-0.9827 1.3059,-1.4967 0.072,-0.079 0.1207,-0.1512 0.1962,-0.2268 0.4892,-0.5945 0.9597,-1.2053 1.4122,-1.8455 0.3059,-0.4286 0.5935,-0.8806 0.8895,-1.3285 0.1434,-0.223 0.2944,-0.4339 0.4391,-0.6588 0.4281,-0.6845 0.8403,-1.3931 1.2336,-2.1248 0.3945,-0.7314 0.7728,-1.4865 1.1328,-2.2662 0.3549,-0.7798 0.6932,-1.5829 1.0133,-2.4114 0.3284,-0.8285 0.6399,-1.677 0.9162,-2.5557 0.2793,-0.878 0.5447,-1.7839 0.7856,-2.7145 0.2378,-0.9309 0.4613,-1.8867 0.6602,-2.8709 0.091,-0.1738 0.091,-0.3553 0.091,-0.5227 0.3284,-1.6959 0.5863,-3.4639 0.7751,-5.3189 0,-0.1285 0.072,-0.257 0.072,-0.3784 0.095,-1.0919 0.1623,-2.2114 0.234,-3.3588 v -0.079 c 0.1057,-2.2756 0.1057,-4.659 0,-7.1611 -0.068,-1.265 -0.1283,-2.5629 -0.234,-3.8876 -0.1661,-2.0481 -0.2944,-4.0603 -0.2944,-6.0397 0,-1.9283 0,-3.8215 0.1321,-5.6855 v -0.1323 -0.257 c 0.1887,-2.6064 0.5277,-5.1489 1.006,-7.6267 0.091,-0.1739 0.091,-0.3326 0.091,-0.4955 0.068,-0.2041 0.068,-0.4116 0.1397,-0.6131 0.2907,-1.3379 0.6331,-2.6543 1.0124,-3.9533 0.072,-0.2495 0.1398,-0.5004 0.2115,-0.748 0.094,-0.2948 0.1962,-0.5832 0.3019,-0.8765 0.1888,-0.5673 0.3738,-1.1433 0.5803,-1.7042 0.3096,-0.8515 0.6535,-1.6951 1.009,-2.5285 0.3625,-0.8337 0.7407,-1.6599 1.1477,-2.4767 0.4054,-0.816 0.8315,-1.6229 1.2848,-2.4219 0.4557,-0.7975 0.9298,-1.5889 1.43,-2.3694 0.5002,-0.7805 1.0212,-1.5504 1.5747,-2.3142 0.4114,-0.5809 0.8659,-1.1581 1.3125,-1.725 0.1397,-0.1852 0.2681,-0.3628 0.4058,-0.5393 0.6003,-0.7446 1.2243,-1.4805 1.871,-2.2076 0.6466,-0.7272 1.3197,-1.4472 2.0188,-2.1559 0.6981,-0.7083 1.421,-1.4128 2.1737,-2.1041 3.7626,-3.4594 8.1881,-6.6924 13.3266,-9.6967 2.0552,-1.2004 4.2296,-2.3626 6.5192,-3.4908 1.1445,-0.5605 2.3189,-1.1149 3.5239,-1.6626 6.0219,-2.7277 12.7997,-5.2263 20.383,-7.4888 1.5029,-0.4452 3.0313,-0.9354 4.5855,-1.4626 1.5512,-0.5284 3.1235,-1.0859 4.7241,-1.6936 3.2001,-1.2087 6.4863,-2.5709 9.8533,-4.0808 5.0527,-2.2647 10.2879,-4.8624 15.6454,-7.7749 12.4977,-6.7978 25.7039,-15.3044 39.0215,-25.2767 5.7055,-4.2746 11.4342,-8.8188 17.1371,-13.6116 1.9038,-1.598 3.7992,-3.2224 5.6916,-4.8741 3.7879,-3.3059 7.5523,-6.7188 11.2911,-10.2349 1.8683,-1.7567 3.7301,-3.538 5.5807,-5.3465 1.8543,-1.8089 3.6919,-3.6469 5.5236,-5.5057 1.8301,-1.8565 3.6523,-3.7376 5.4598,-5.6432 1.6821,-1.7741 3.3465,-3.5705 5.0065,-5.3839 0.1283,-0.1323 0.2567,-0.257 0.3737,-0.3954 1.778,-1.9513 3.5413,-3.9239 5.2888,-5.9195 1.746,-1.9967 3.4791,-4.01 5.1919,-6.0499 1.713,-2.0398 3.405,-4.1 5.0785,-6.181 1.6742,-2.0825 3.3334,-4.1839 4.9649,-6.3061 1.2296,-1.5973 2.4357,-3.2191 3.6384,-4.8393 0.3949,-0.5341 0.8022,-1.0564 1.1956,-1.5905 1.5859,-2.1619 3.1521,-4.3411 4.692,-6.5404 1.5383,-2.1982 3.0547,-4.4195 4.541,-6.6539 0.3891,-0.5809 0.7569,-1.1751 1.1377,-1.7552 1.0914,-1.6611 2.1827,-3.3252 3.2425,-5.0056 l 8.5299,6.0956 c 1.0158,0.8239 2.0684,1.5866 3.1658,2.2624 l 0.1283,0.079 c 6.5954,4.0282 14.3882,5.4504 20.6471,4.3873 5.4226,-0.9207 13.1561,-4.6814 18.1021,-11.7861 1.4553,-2.0912 2.6705,-4.4678 3.5142,-7.1505 0.1661,-0.534 0.3209,-1.0817 0.4614,-1.6426 0.9418,-3.8358 1.1343,-8.2454 0.2567,-13.2559 0,-0.1172 -0.072,-0.223 -0.072,-0.3402 -0.1321,-0.7336 -0.2945,-1.4816 -0.4723,-2.242 -0.1774,-0.7597 -0.3888,-1.5341 -0.6201,-2.3214 0,-0.068 0,-0.079 -0.072,-0.1512 v -0.1058 c -0.3887,-1.3304 -0.7557,-2.7598 -1.109,-4.2463 -0.068,-0.2721 -0.1284,-0.534 -0.2001,-0.8103 -0.3945,-1.7144 -0.7663,-3.5123 -1.1201,-5.4055 -0.072,-0.4006 -0.1434,-0.8379 -0.2113,-1.2454 -0.287,-1.5511 -0.5603,-3.1271 -0.8064,-4.7803 -0.1208,-0.7907 -0.2341,-1.6343 -0.3398,-2.4457 -0.1962,-1.3803 -0.3888,-2.7496 -0.5666,-4.1878 -0.098,-0.7559 -0.1926,-1.5484 -0.2718,-2.3183 -0.1737,-1.5409 -0.3435,-3.0883 -0.5059,-4.6844 -0.091,-0.8802 -0.1623,-1.7881 -0.2454,-2.6831 -0.1396,-1.5095 -0.2679,-3.0221 -0.3948,-4.5709 -0.079,-1.0273 -0.1434,-2.0731 -0.2227,-3.1151 -0.098,-1.4332 -0.2001,-2.8751 -0.2907,-4.3355 -0.068,-1.1584 -0.1208,-2.3289 -0.1964,-3.501 -0.072,-1.4645 -0.1396,-2.9321 -0.2113,-4.4152 -0.068,-1.1256 -0.068,-2.256 -0.1208,-3.391 -0.068,-1.5511 -0.068,-3.1094 -0.1397,-4.6745 0,-1.1263 -0.072,-2.2515 -0.072,-3.3835 0,-1.4948 -0.068,-2.9986 -0.068,-4.5014 v -3.7221 -4.5532 -3.4801 c 0,-1.6698 0.091,-3.3366 0.091,-4.9985 0,-0.9842 0.072,-1.9695 0.072,-2.9495 0.072,-1.8656 0.1057,-3.7164 0.1774,-5.5642 0,-0.7945 0.091,-1.5984 0.091,-2.3906 0.079,-2.0031 0.1775,-3.9798 0.2907,-5.9501 0.068,-0.6403 0.068,-1.2866 0.1057,-1.9208 0.1207,-2.087 0.268,-4.1321 0.4058,-6.164 0.068,-0.5004 0.068,-1.0174 0.1057,-1.5182 0.1963,-2.5191 0.3998,-4.9901 0.6334,-7.4026 0.9069,-10.0732 1.4987,-20.3694 1.9121,-30.579 0,-0.4781 0.072,-0.9718 0.072,-1.4518 0,-0.3552 0,-0.6954 0.072,-1.0495 0.6538,-17.4486 0.7739,-34.5789 0.9335,-49.8577 0.2227,-21.4737 0,-42.8923 -0.2907,-62.6661 -0.5111,-32.9616 -1.3276,-61.3602 -1.0475,-77.8601 0.6754,-39.3241 -0.6712,-86.8698 -2.2288,-125.6425 0.7497,0.1965 1.5425,0.3061 2.3594,0.3742 h 0.072 c 0.3889,0 0.7671,0.068 1.1541,0.068 h 0.1623 c 0.2868,0 0.5602,0 0.8407,-0.068 0.6002,-0.068 1.2159,-0.1021 1.8294,-0.2003 0.1963,0 0.3888,-0.057 0.5734,-0.1134 0.6134,-0.1172 1.2302,-0.2608 1.8497,-0.4396 0.1397,-0.061 0.2719,-0.057 0.4111,-0.1172 0.5935,-0.1889 1.1809,-0.4059 1.7683,-0.6481 0.1623,-0.068 0.3208,-0.1285 0.4779,-0.1966 0.6335,-0.2797 1.2616,-0.5987 1.8811,-0.9517 0.2265,-0.1285 0.4557,-0.257 0.6822,-0.3953 0.094,-0.068 0.1887,-0.1096 0.2718,-0.1776 0.2868,-0.1815 0.5734,-0.3667 0.8501,-0.5617 0.1548,-0.1058 0.3058,-0.2154 0.4443,-0.3212 0.234,-0.1739 0.467,-0.3553 0.6999,-0.5398 0.1396,-0.1096 0.2718,-0.2154 0.4111,-0.3288 0.234,-0.2003 0.4614,-0.4063 0.689,-0.6141 0.1396,-0.1285 0.2906,-0.2571 0.4281,-0.3897 0.3284,-0.3099 0.6466,-0.6497 0.9538,-0.9902 0.1737,-0.1966 0.3322,-0.4007 0.5059,-0.5999 0.1397,-0.1663 0.2869,-0.3326 0.4277,-0.506 0.1888,-0.2381 0.3662,-0.4952 0.5448,-0.7412 0.1057,-0.1512 0.2114,-0.2948 0.3209,-0.4505 0.1736,-0.257 0.3435,-0.5288 0.5058,-0.8005 0.102,-0.1625 0.2114,-0.3175 0.2944,-0.4899 0.1624,-0.2721 0.3021,-0.5563 0.4614,-0.8409 0.095,-0.1739 0.1661,-0.3326 0.2567,-0.5065 0.1434,-0.3061 0.2718,-0.6107 0.4111,-0.918 0.068,-0.1512 0.1133,-0.3061 0.1888,-0.4672 0.132,-0.3439 0.268,-0.6848 0.3944,-1.045 0.068,-0.1172 0.068,-0.2381 0.1057,-0.3628 0.1284,-0.3954 0.2454,-0.7941 0.3549,-1.208 0.3661,-1.4759 0.587,-3.055 0.672,-4.7289 v -0.2003 -1.4037 -0.5008 c 0,-0.4392 -0.091,-0.8916 -0.091,-1.3455 0,-0.1966 -0.072,-0.395 -0.072,-0.5938 -0.068,-0.4728 -0.098,-0.9509 -0.1888,-1.4309 0,-0.1663 -0.091,-0.3326 -0.091,-0.5061 -0.091,-0.5231 -0.1964,-1.0394 -0.302,-1.5731 0,-0.1322 -0.068,-0.2721 -0.1057,-0.4172 -0.1322,-0.5673 -0.2794,-1.1411 -0.4391,-1.728 -0.8569,-3.0146 -2.1612,-6.2309 -4.0204,-9.6726 -22.9707,-39.8339 -25.816,-89.4433 -25.816,-89.4433 l -0.7338,-12.6421 c 0,-22.6946 -11.8555,-41.9962 -29.3539,-53.6149 h 0.072 l -41.4121,-29.6549 c -0.1435,-0.1058 -0.2945,-0.223 -0.4556,-0.3213 l -0.1737,-0.1209 C 595.41484,4.8329 581.49204,0.2574 566.83364,0.2574 l -0.072,-0.1096 z m -0.9539,69.4957 4.0068,69.0954 c 0,0 6.9827,117.3873 5.6852,193.1335 -0.5387,31.3565 1.886,86.2587 1.3261,141.0131 -0.5598,54.7529 -0.7353,107.3881 -21.5538,156.6452 l -0.439,1.0454 -0.4779,1.0386 c -47.5081,101.7888 -143.5641,168.3855 -256.3738,167.0865 h -1.971 l -1.9532,-0.1436 c -49.1131,-3.7077 -94.5215,-11.3537 -134.9717,-37.578 -40.4481,-26.2235 -68.086496,-70.0943 -83.107696,-122.2752 l -0.072,-0.1512 -0.072,-0.1399 c -10.3568,-36.6357 -10.424,-76.0169 -4.5954,-120.0472 l 5.1401,-38.7848 192.417896,-61.2968 c -2.6678,-33.3554 -3.9475,-54.4138 -7.8584,-95.3695 -6.9181,-72.4547 -13.7808,-139.3097 -13.7808,-139.3097 l -5.8773,-57.1464 256.3941,-44.8668 z m -57.4787,72.6482 -199.8807,34.9848 c 0,0 27.5468,268.0955 28.0134,313.6978 0.467,45.6008 -6.7743,78.7533 -34.3049,87.2432 -27.5291,8.4896 -19.4633,-71.4062 -16.0726,-100.7618 l -153.7544,48.9823 c -5.1243,38.7171 -4.1941,70.4391 2.7939,95.1625 24.8843,86.4514 73.6984,108.669 163.5394,115.4528 90.8955,1.0462 160.3052,-46.7531 199.8849,-131.5479 25.2341,-59.7068 14.1627,-204.0855 15.373,-274.6916 1.2118,-70.6057 -5.592,-188.5221 -5.592,-188.5221 z" />
</svg>